<svg width="53" height="40" viewBox="0 0 53 40" fill="none" xmlns="http://www.w3.org/2000/svg">
<path d="M15.7787 17.3948C21.6152 20.4493 21.8 22.7003 22.4245 26.6519C21.9367 33.2171 18.4829 36.5285 11.9176 36.0407C5.35238 35.5528 1.55402 31.1447 2.04187 24.5794C2.57782 17.3669 6.48313 9.23092 20.2234 2.00008C16.5139 7.50073 16.1446 12.4709 15.7787 17.3948Z" stroke="#008080" stroke-opacity="0.1" stroke-width="4" stroke-linecap="round" stroke-linejoin="round"/>
<path d="M43.56 18.9014C49.3965 21.9558 49.5813 24.2068 50.2058 28.1584C49.718 34.7236 46.2642 38.0351 39.6989 37.5472C33.1337 37.0594 29.3353 32.6512 29.8232 26.086C30.3591 18.8734 34.2644 10.7375 48.0047 3.50662C44.2952 9.00728 43.9259 13.9774 43.56 18.9014Z" stroke="#008080" stroke-opacity="0.1" stroke-width="4" stroke-linecap="round" stroke-linejoin="round"/>
</svg>
